<svg xmlns="http://www.w3.org/2000/svg" width="150" height="163.636" viewBox="0 0 150 163.636"><defs><style>.a{fill:#f9dc5c;}</style></defs><path class="a" d="M119.036,38.148l8.836-10.411a75.479,75.479,0,0,1,12.743,16.152l-12.109,6.348a61.066,61.066,0,0,0-9.47-12.089ZM145.245,53l-12.184,6.389A60.45,60.45,0,0,1,136.7,73.3h13.78A74.233,74.233,0,0,0,145.245,53ZM44.268,29.414a60.844,60.844,0,0,1,66.893,2.2l8.85-10.425A74.314,74.314,0,0,0,36.53,18.225L23.916,0,9.243,47.727H56.93L44.268,29.414Zm93.014,54.109a60.864,60.864,0,0,1-3.5,18.75H148.1a75.6,75.6,0,0,0,2.9-18.75ZM32.964,125.489,24.134,135.9a75.267,75.267,0,0,1-12.743-16.152l12.1-6.348A61.066,61.066,0,0,0,32.964,125.489ZM6.755,110.632l12.184-6.389a61.151,61.151,0,0,1-3.634-13.9H1.518a74.735,74.735,0,0,0,5.236,20.291Zm100.977,23.591a60.833,60.833,0,0,1-66.886-2.2l-8.857,10.425a74.314,74.314,0,0,0,83.482,2.959l12.614,18.225,14.673-47.727H95.07l12.661,18.314ZM14.718,80.114a61.263,61.263,0,0,1,3.5-18.75H3.9A75.289,75.289,0,0,0,1,80.114H14.718Z" transform="translate(-1)"/></svg>