<svg xmlns="http://www.w3.org/2000/svg"  width="343.646" height="307.515" viewBox="0 0 343.646 307.515"><defs><style>.a{fill:#99e1d9;}.b{fill:#f9dc5c;}</style></defs><g transform="translate(-217.51 -253.623)"><g transform="translate(387.49 387.472)"><path class="a" d="M705.225,578.009a7.061,7.061,0,0,1,4.44-9.469c7.559-2.323,14.681-4.913,16.9-13.365A19.724,19.724,0,0,0,712.1,531.433c-12.774-2.886-20.027,6.869-22.274,18.156a7.061,7.061,0,0,1-9.223,5.3L647.935,524.2l-.415.442-10.91,11.616-19,20.228a7.051,7.051,0,0,1-10.052-4.446c-2.955-11.123-10.81-20.4-23.377-16.713a19.723,19.723,0,0,0-12.927,24.608c2.743,8.3,10.014,10.431,17.7,12.271a7.053,7.053,0,0,1,4.836,9.636l-29.971,31.91,30.568,28.711a7.051,7.051,0,0,1-3.021,11.954c-11.125,2.949-20.407,10.8-16.727,23.367a19.724,19.724,0,0,0,24.6,12.942c8.3-2.739,10.437-10.008,12.282-17.7a7.051,7.051,0,0,1,11.683-3.5l30.167,28.335,29.478-31.384a7.057,7.057,0,0,0-4.584-10.178c-7.691-1.841-14.962-3.976-17.705-12.271a19.723,19.723,0,0,1,12.928-24.608c12.567-3.687,20.421,5.589,23.376,16.713a7.051,7.051,0,0,0,10.614,4.123l17.775-18.925,11.816-12.581.415-.442Z" transform="translate(-563.823 -524.2)"/></g><g transform="translate(217.51 253.623)"><path class="b" d="M345.825,296.4a7.061,7.061,0,0,1,.3-10.454c6.008-5.143,11.508-10.356,10.171-18.99a19.724,19.724,0,0,0-22.718-16.017c-12.867,2.443-15.633,14.279-13.2,25.527a7.062,7.062,0,0,1-6.35,8.533L271.84,269.872l-.2.571-5.379,15-9.367,26.124a7.051,7.051,0,0,1-10.992-.073c-7.143-9.025-18.043-14.4-28.1-6.016a19.723,19.723,0,0,0-2.053,27.721c5.821,6.516,13.34,5.577,21.128,4.2a7.052,7.052,0,0,1,8.274,6.912L230.37,385.522l39.476,14.155c.076.027.143.066.218.1l2.492.893a7.061,7.061,0,0,0,6.35-8.532c-2.436-11.249.33-23.085,13.2-25.528a19.724,19.724,0,0,1,22.718,16.017c1.337,8.635-4.163,13.847-10.171,18.99a7.061,7.061,0,0,0-.3,10.454l2.479.889c.078.025.155.039.233.067l38.959,13.97,14.533-40.529c.7-4.926-3.1-8.306-8.259-7.509-7.816,1.206-14.748,2.289-20.569-4.226-7.081-7.926-6.662-20.894,1.493-27.7,10.057-8.389,20.957-3.01,28.1,6.015A7.05,7.05,0,0,0,372.7,352.6l8.764-24.441,5.826-16.246.205-.571Z" transform="translate(-211 -250.623)"/></g></g></svg>